<?xml version="1.0"?>
<svg xmlns="http://www.w3.org/2000/svg" xmlns:xlink="http://www.w3.org/1999/xlink" version="1.1" viewBox="0 0 24 24" xml:space="preserve">
  <path d="M21,12c0-4.2488403-2.9633789-7.8110352-6.9294434-8.750061  c-0.9530029-1.9185181-1.6314087-2.9917603-1.6506348-3.0214233C12.3261719,0.0839844,12.1591797,0.0249023,11.9931641,0  c-0.171875,0.0024414-0.3305664,0.0932617-0.4204102,0.2402344c-0.6142578,1.0092163-1.1763916,2.0193481-1.6956177,3.0231934  C5.937561,4.2214966,3,7.7699585,3,12c0,2.0593872,0.7028198,3.9536133,1.8710938,5.4719849  c-0.7495728,3.6035156-0.8684082,5.9544678-0.8706055,6.0065308c-0.0092773,0.2172852,0.1225586,0.4155273,0.3271484,0.4907227  C4.3837891,23.9902344,4.4423828,24,4.5,24c0.1508789,0,0.2978516-0.0688477,0.3945313-0.1928711  c0.9970703-1.2819214,2.0611572-2.5742188,3.0946655-3.762085C9.1987305,20.6506348,10.5579224,21,12,21  c1.9313965,0,3.7182007-0.6173096,5.1859131-1.6570435c0.6507568,1.0718384,1.2962646,2.2397461,1.8668213,3.3806763  c0.1098633,0.21875,0.3623047,0.3251953,0.5976563,0.253418c0.234375-0.0742188,0.3803711-0.3071289,0.3442383-0.550293  c-0.253418-1.7108154-0.5649414-3.342041-0.9141846-4.8900757C20.2785645,16.0078735,21,14.0883789,21,12z M19,12  c0,1.00354-0.2161865,1.9562378-0.5981445,2.8198853c-0.9753418-3.6107788-2.1154175-6.6512451-3.1430664-9.0100708  C17.4807129,6.984314,19,9.3167114,19,12z M5,12c0-2.6333008,1.4629517-4.9295654,3.6174316-6.1243286  c-1.4168701,3.1571045-2.4031982,6.1726685-3.0872192,8.7897949C5.1901245,13.8432007,5,12.9437256,5,12z M12,19  c-0.9255371,0-1.8076172-0.1847534-2.6170044-0.5124512C11.2702637,16.446228,12.8760376,15,13.5,15  c0.5438232,0,1.5248413,1.0926514,2.6016846,2.6602783C14.9474487,18.4990234,13.5327148,19,12,19z" fill="#ffffff"/>
</svg>